<mxfile host="app.diagrams.net" modified="2023-09-19T08:19:47.307Z" agent="Mozilla/5.0 (Windows NT 10.0; Win64; x64) AppleWebKit/537.36 (KHTML, like Gecko) Chrome/116.0.0.0 Safari/537.36" version="21.7.5" etag="odasWnUbgZTwH3Cg7QOw" type="github">
  <diagram name="Page-1" id="V8-oNrBo4PYw-RONdOFp">
    <mxGraphModel>
      <root>
        <mxCell id="0" />
        <mxCell id="1" parent="0" />
      </root>
    </mxGraphModel>
  </diagram>
</mxfile>
